<svg width="1383" height="1251" xmlns="http://www.w3.org/2000/svg" xmlns:xlink="http://www.w3.org/1999/xlink" xml:space="preserve" overflow="hidden"><defs><clipPath id="clip0"><rect x="1863" y="939" width="1383" height="1251"/></clipPath></defs><g clip-path="url(#clip0)" transform="translate(-1863 -939)"><rect x="1864" y="940" width="1380" height="1248" fill="#FFFFFF"/><g><path d="M1973.5 1735.56 3194.5 1735.56M1973.5 1674.56 3194.5 1674.56M1973.5 1613.55 3194.5 1613.55M1973.5 1552.55 3194.5 1552.55M1973.5 1492.55 3194.5 1492.55M1973.5 1431.55 3194.5 1431.55M1973.5 1370.55 3194.5 1370.55M1973.5 1309.54 3194.5 1309.54M1973.5 1248.54 3194.5 1248.54M1973.5 1188.5 3194.5 1188.5" stroke="#D9D9D9" stroke-width="3.4375" stroke-linejoin="round" stroke-miterlimit="10" fill="none"/></g><g><path d="M1973.5 1796.5 3194.5 1796.5" stroke="#D9D9D9" stroke-width="3.4375" stroke-linejoin="round" stroke-miterlimit="10" fill="none" fill-rule="evenodd"/></g><g><path d="M1984 1743 2004.07 1737.06 2024.07 1730.06 2044.07 1727.06 2064.07 1727.06 2084.07 1723.06 2104.07 1724.06 2124.07 1721.06 2144.07 1717.06 2164.07 1715.06 2184.07 1715.06 2204.07 1709.06 2224.07 1702.06 2244.07 1710.06 2264.07 1717.06 2284.07 1709.06 2304.08 1710.06 2324.08 1711.06 2344.08 1703.06 2364.08 1699.06 2384.08 1697.06 2404.08 1698.06 2424.08 1696.06 2444.08 1689.06 2464.08 1684.06 2484.08 1679.06 2504.08 1669.05 2524.08 1656.05 2544.08 1656.05 2564.08 1663.05 2584.08 1657.05 2604.09 1662.05 2624.09 1665.05 2644.09 1657.05 2664.09 1659.05 2684.09 1649.05 2704.09 1648.05 2724.09 1645.05 2744.09 1648.05 2764.09 1641.05 2784.09 1633.05 2804.09 1629.05 2824.09 1624.05 2844.09 1620.05 2864.09 1625.05 2884.09 1639.05 2904.1 1615.05 2924.1 1603.05 2944.1 1602.05 2964.1 1605.05 2984.1 1601.05 3004.1 1600.05 3024.1 1600.05 3044.1 1601.05 3064.1 1602.05 3084.1 1602.05 3104.1 1604.05 3124.1 1582 3144.1 1592.05 3164.1 1589.05 3184 1582.05" stroke="#156082" stroke-width="10.3125" stroke-linecap="round" stroke-linejoin="round" stroke-miterlimit="10" fill="none"/></g><g><path d="M1984 1509.05 2004.07 1481.05 2024.07 1507.05 2044.07 1490.05 2064.07 1495.05 2084.07 1494.05 2104.07 1480.05 2124.07 1479.05 2144.07 1475.05 2164.07 1462.05 2184.07 1458.05 2204.07 1469.05 2224.07 1467.05 2244.07 1479.05 2264.07 1499.05 2284.07 1479.05 2304.08 1479.05 2324.08 1471.05 2344.08 1454.05 2364.08 1452 2384.08 1465.05 2404.08 1464.05 2424.08 1478.05 2444.08 1455.05 2464.08 1456.05 2484.08 1459.05 2504.08 1460.05 2524.08 1479.05 2544.08 1483.05 2564.08 1472.05 2584.08 1467.05 2604.09 1485.05 2624.09 1501.05 2644.09 1520.05 2664.09 1521.05 2684.09 1517.05 2704.09 1526.05 2724.09 1527.05 2744.09 1526.05 2764.09 1550.05 2784.09 1549.05 2804.09 1549.05 2824.09 1550.05 2844.09 1553.05 2864.09 1549.05 2884.09 1543.05 2904.1 1547.05 2924.1 1537.05 2944.1 1540.05 2964.1 1534.05 2984.1 1533.05 3004.1 1543.05 3024.1 1537.05 3044.1 1556.05 3064.1 1562.05 3084.1 1564.05 3104.1 1570 3124.1 1540.05 3144.1 1564.05 3164.1 1560.05 3184 1556.05" stroke="#E97132" stroke-width="10.3125" stroke-linecap="round" stroke-linejoin="round" stroke-miterlimit="10" fill="none"/></g><g><path d="M1984 1788 2004.07 1787.06 2024.07 1787.06 2044.07 1787.06 2064.07 1787.06 2084.07 1785.06 2104.07 1782.06 2124.07 1784.06 2144.07 1784.06 2164.07 1783.06 2184.07 1783.06 2204.07 1782.06 2224.07 1781.06 2244.07 1781.06 2264.07 1783.06 2284.07 1782.06 2304.08 1781.06 2324.08 1781.06 2344.08 1780.06 2364.08 1779.06 2384.08 1778.06 2404.08 1778.06 2424.08 1779.06 2444.08 1778.06 2464.08 1776.06 2484.08 1777.06 2504.08 1777.06 2524.08 1775.06 2544.08 1775.06 2564.08 1774.06 2584.08 1774.06 2604.09 1773.06 2624.09 1774.06 2644.09 1774.06 2664.09 1775.06 2684.09 1773.06 2704.09 1773.06 2724.09 1773.06 2744.09 1774.06 2764.09 1772 2784.09 1774.06 2804.09 1774.06 2824.09 1774.06 2844.09 1774.06 2864.09 1775.06 2884.09 1775.06 2904.1 1776.06 2924.1 1777.06 2944.1 1778.06 2964.1 1777.06 2984.1 1777.06 3004.1 1778.06 3024.1 1779.06 3044.1 1778.06 3064.1 1778.06 3084.1 1778.06 3104.1 1778.06 3124.1 1778.06 3144.1 1780.06 3164.1 1779.06 3184 1780.06" stroke="#196B24" stroke-width="10.3125" stroke-linecap="round" stroke-linejoin="round" stroke-miterlimit="10" fill="none"/></g><g><path d="M1984 1475 2004.07 1472.05 2024.07 1462.05 2044.07 1445.05 2064.07 1444.05 2084.07 1437.05 2104.07 1430.05 2124.07 1408.05 2144.07 1393.05 2164.07 1379.05 2184.07 1359.04 2204.07 1343.04 2224.07 1322.04 2244.07 1328.04 2264.07 1333.04 2284.07 1310.04 2304.08 1279.04 2324.08 1278.04 2344.08 1275.04 2364.08 1249.04 2384.08 1252.04 2404.08 1235 2424.08 1236.04 2444.08 1262.04 2464.08 1251.04 2484.08 1250.04 2504.08 1268.04 2524.08 1272.04 2544.08 1274.04 2564.08 1301.04 2584.08 1311.04 2604.09 1320.04 2624.09 1329.04 2644.09 1359.04 2664.09 1350.04 2684.09 1386.05 2704.09 1389.05 2724.09 1370.04 2744.09 1377.05 2764.09 1381.05 2784.09 1381.05 2804.09 1378.05 2824.09 1386.05 2844.09 1389.05 2864.09 1383.05 2884.09 1376.05 2904.1 1380.05 2924.1 1385.05 2944.1 1393.05 2964.1 1385.05 2984.1 1393.05 3004.1 1415.05 3024.1 1417.05 3044.1 1413.05 3064.1 1427.05 3084.1 1433.05 3104.1 1438.05 3124.1 1450.05 3144.1 1457.05 3164.1 1455.05 3184 1453.05" stroke="#0F9ED5" stroke-width="10.3125" stroke-linecap="round" stroke-linejoin="round" stroke-miterlimit="10" fill="none"/></g><g><path d="M1984 1778.06 2004.07 1780.06 2024.07 1780.06 2044.07 1777.06 2064.07 1777.06 2084.07 1776.06 2104.07 1776.06 2124.07 1778.06 2144.07 1778.06 2164.07 1777.06 2184.07 1777.06 2204.07 1775.06 2224.07 1774.06 2244.07 1777.06 2264.07 1775.06 2284.07 1771.06 2304.08 1768.06 2324.08 1767.06 2344.08 1766.06 2364.08 1766.06 2384.08 1767.06 2404.08 1767.06 2424.08 1767.06 2444.08 1766.06 2464.08 1765.06 2484.08 1765.06 2504.08 1762 2524.08 1767.06 2544.08 1767.06 2564.08 1766.06 2584.08 1766.06 2604.09 1767.06 2624.09 1768.06 2644.09 1768.06 2664.09 1769.06 2684.09 1767.06 2704.09 1769.06 2724.09 1770.06 2744.09 1771.06 2764.09 1770.06 2784.09 1768.06 2804.09 1769.06 2824.09 1771.06 2844.09 1770.06 2864.09 1771.06 2884.09 1769.06 2904.1 1770.06 2924.1 1770.06 2944.1 1772.06 2964.1 1771.06 2984.1 1772.06 3004.1 1774.06 3024.1 1775.06 3044.1 1776.06 3064.1 1779.06 3084.1 1779.06 3104.1 1780.06 3124.1 1781.06 3144.1 1782.06 3164.1 1783.06 3184 1783" stroke="#A02B93" stroke-width="10.3125" stroke-linecap="round" stroke-linejoin="round" stroke-miterlimit="10" fill="none"/></g><g><path d="M1984 1704.06 2004.07 1699.06 2024.07 1693.06 2044.07 1692.06 2064.07 1689.06 2084.07 1695.06 2104.07 1693.06 2124.07 1681.06 2144.07 1678.06 2164.07 1670.05 2184.07 1668.05 2204.07 1659.05 2224.07 1664.05 2244.07 1667.05 2264.07 1675.05 2284.07 1706 2304.08 1699.06 2324.08 1698.06 2344.08 1691.06 2364.08 1679.06 2384.08 1682.06 2404.08 1682.06 2424.08 1674.05 2444.08 1670.05 2464.08 1663.05 2484.08 1653.05 2504.08 1644.05 2524.08 1631.05 2544.08 1626.05 2564.08 1624.05 2584.08 1618.05 2604.09 1626.05 2624.09 1626.05 2644.09 1618.05 2664.09 1619.05 2684.09 1618.05 2704.09 1616.05 2724.09 1612.05 2744.09 1607.05 2764.09 1604.05 2784.09 1597.05 2804.09 1607.05 2824.09 1606.05 2844.09 1601.05 2864.09 1603.05 2884.09 1589.05 2904.1 1585.05 2924.1 1580.05 2944.1 1576.05 2964.1 1576 2984.1 1577.05 3004.1 1589.05 3024.1 1579.05 3044.1 1590.05 3064.1 1585.05 3084.1 1581.05 3104.1 1589.05 3124.1 1592.05 3144.1 1600.05 3164.1 1601.05 3184 1602.05" stroke="#4EA72E" stroke-width="10.3125" stroke-linecap="round" stroke-linejoin="round" stroke-miterlimit="10" fill="none"/></g><g><text fill="#595959" font-family="Aptos Narrow,Aptos Narrow_MSFontService,sans-serif" font-weight="400" font-stretch="semi-condensed" font-size="41" transform="matrix(1 0 0 1 1914.62 1808)">0</text></g><g><text fill="#595959" font-family="Aptos Narrow,Aptos Narrow_MSFontService,sans-serif" font-weight="400" font-stretch="semi-condensed" font-size="41" transform="matrix(1 0 0 1 1914.62 1747)">5</text></g><g><text fill="#595959" font-family="Aptos Narrow,Aptos Narrow_MSFontService,sans-serif" font-weight="400" font-stretch="semi-condensed" font-size="41" transform="matrix(1 0 0 1 1893.72 1686)">10</text></g><g><text fill="#595959" font-family="Aptos Narrow,Aptos Narrow_MSFontService,sans-serif" font-weight="400" font-stretch="semi-condensed" font-size="41" transform="matrix(1 0 0 1 1893.72 1625)">15</text></g><g><text fill="#595959" font-family="Aptos Narrow,Aptos Narrow_MSFontService,sans-serif" font-weight="400" font-stretch="semi-condensed" font-size="41" transform="matrix(1 0 0 1 1893.72 1565)">20</text></g><g><text fill="#595959" font-family="Aptos Narrow,Aptos Narrow_MSFontService,sans-serif" font-weight="400" font-stretch="semi-condensed" font-size="41" transform="matrix(1 0 0 1 1893.72 1504)">25</text></g><g><text fill="#595959" font-family="Aptos Narrow,Aptos Narrow_MSFontService,sans-serif" font-weight="400" font-stretch="semi-condensed" font-size="41" transform="matrix(1 0 0 1 1893.72 1443)">30</text></g><g><text fill="#595959" font-family="Aptos Narrow,Aptos Narrow_MSFontService,sans-serif" font-weight="400" font-stretch="semi-condensed" font-size="41" transform="matrix(1 0 0 1 1893.72 1382)">35</text></g><g><text fill="#595959" font-family="Aptos Narrow,Aptos Narrow_MSFontService,sans-serif" font-weight="400" font-stretch="semi-condensed" font-size="41" transform="matrix(1 0 0 1 1893.72 1321)">40</text></g><g><text fill="#595959" font-family="Aptos Narrow,Aptos Narrow_MSFontService,sans-serif" font-weight="400" font-stretch="semi-condensed" font-size="41" transform="matrix(1 0 0 1 1893.72 1261)">45</text></g><g><text fill="#595959" font-family="Aptos Narrow,Aptos Narrow_MSFontService,sans-serif" font-weight="400" font-stretch="semi-condensed" font-size="41" transform="matrix(1 0 0 1 1893.72 1200)">50</text></g><g><text fill="#595959" font-family="Aptos Narrow,Aptos Narrow_MSFontService,sans-serif" font-weight="400" font-stretch="semi-condensed" font-size="41" transform="matrix(6.12323e-17 -1 1 6.12323e-17 1997.43 1906)">1961</text></g><g><text fill="#595959" font-family="Aptos Narrow,Aptos Narrow_MSFontService,sans-serif" font-weight="400" font-stretch="semi-condensed" font-size="41" transform="matrix(6.12323e-17 -1 1 6.12323e-17 2057.46 1906)">1964</text></g><g><text fill="#595959" font-family="Aptos Narrow,Aptos Narrow_MSFontService,sans-serif" font-weight="400" font-stretch="semi-condensed" font-size="41" transform="matrix(6.12323e-17 -1 1 6.12323e-17 2117.48 1906)">1967</text></g><g><text fill="#595959" font-family="Aptos Narrow,Aptos Narrow_MSFontService,sans-serif" font-weight="400" font-stretch="semi-condensed" font-size="41" transform="matrix(6.12323e-17 -1 1 6.12323e-17 2177.5 1906)">1970</text></g><g><text fill="#595959" font-family="Aptos Narrow,Aptos Narrow_MSFontService,sans-serif" font-weight="400" font-stretch="semi-condensed" font-size="41" transform="matrix(6.12323e-17 -1 1 6.12323e-17 2237.52 1906)">1973</text></g><g><text fill="#595959" font-family="Aptos Narrow,Aptos Narrow_MSFontService,sans-serif" font-weight="400" font-stretch="semi-condensed" font-size="41" transform="matrix(6.12323e-17 -1 1 6.12323e-17 2297.55 1906)">1976</text></g><g><text fill="#595959" font-family="Aptos Narrow,Aptos Narrow_MSFontService,sans-serif" font-weight="400" font-stretch="semi-condensed" font-size="41" transform="matrix(6.12323e-17 -1 1 6.12323e-17 2357.57 1906)">1979</text></g><g><text fill="#595959" font-family="Aptos Narrow,Aptos Narrow_MSFontService,sans-serif" font-weight="400" font-stretch="semi-condensed" font-size="41" transform="matrix(6.12323e-17 -1 1 6.12323e-17 2417.59 1906)">1982</text></g><g><text fill="#595959" font-family="Aptos Narrow,Aptos Narrow_MSFontService,sans-serif" font-weight="400" font-stretch="semi-condensed" font-size="41" transform="matrix(6.12323e-17 -1 1 6.12323e-17 2477.61 1906)">1985</text></g><g><text fill="#595959" font-family="Aptos Narrow,Aptos Narrow_MSFontService,sans-serif" font-weight="400" font-stretch="semi-condensed" font-size="41" transform="matrix(6.12323e-17 -1 1 6.12323e-17 2537.63 1906)">1988</text></g><g><text fill="#595959" font-family="Aptos Narrow,Aptos Narrow_MSFontService,sans-serif" font-weight="400" font-stretch="semi-condensed" font-size="41" transform="matrix(6.12323e-17 -1 1 6.12323e-17 2597.66 1906)">1991</text></g><g><text fill="#595959" font-family="Aptos Narrow,Aptos Narrow_MSFontService,sans-serif" font-weight="400" font-stretch="semi-condensed" font-size="41" transform="matrix(6.12323e-17 -1 1 6.12323e-17 2657.68 1906)">1994</text></g><g><text fill="#595959" font-family="Aptos Narrow,Aptos Narrow_MSFontService,sans-serif" font-weight="400" font-stretch="semi-condensed" font-size="41" transform="matrix(6.12323e-17 -1 1 6.12323e-17 2717.7 1906)">1997</text></g><g><text fill="#595959" font-family="Aptos Narrow,Aptos Narrow_MSFontService,sans-serif" font-weight="400" font-stretch="semi-condensed" font-size="41" transform="matrix(6.12323e-17 -1 1 6.12323e-17 2777.72 1906)">2000</text></g><g><text fill="#595959" font-family="Aptos Narrow,Aptos Narrow_MSFontService,sans-serif" font-weight="400" font-stretch="semi-condensed" font-size="41" transform="matrix(6.12323e-17 -1 1 6.12323e-17 2837.74 1906)">2003</text></g><g><text fill="#595959" font-family="Aptos Narrow,Aptos Narrow_MSFontService,sans-serif" font-weight="400" font-stretch="semi-condensed" font-size="41" transform="matrix(6.12323e-17 -1 1 6.12323e-17 2897.77 1906)">2006</text></g><g><text fill="#595959" font-family="Aptos Narrow,Aptos Narrow_MSFontService,sans-serif" font-weight="400" font-stretch="semi-condensed" font-size="41" transform="matrix(6.12323e-17 -1 1 6.12323e-17 2957.79 1906)">2009</text></g><g><text fill="#595959" font-family="Aptos Narrow,Aptos Narrow_MSFontService,sans-serif" font-weight="400" font-stretch="semi-condensed" font-size="41" transform="matrix(6.12323e-17 -1 1 6.12323e-17 3017.81 1906)">2012</text></g><g><text fill="#595959" font-family="Aptos Narrow,Aptos Narrow_MSFontService,sans-serif" font-weight="400" font-stretch="semi-condensed" font-size="41" transform="matrix(6.12323e-17 -1 1 6.12323e-17 3077.83 1906)">2015</text></g><g><text fill="#595959" font-family="Aptos Narrow,Aptos Narrow_MSFontService,sans-serif" font-weight="400" font-stretch="semi-condensed" font-size="41" transform="matrix(6.12323e-17 -1 1 6.12323e-17 3137.85 1906)">2018</text></g><g><text fill="#595959" font-family="Aptos Narrow,Aptos Narrow_MSFontService,sans-serif" font-weight="400" font-stretch="semi-condensed" font-size="41" transform="matrix(6.12323e-17 -1 1 6.12323e-17 3197.88 1906)">2021</text></g><g><text fill="#595959" font-family="Aptos Narrow,Aptos Narrow_MSFontService,sans-serif" font-weight="400" font-stretch="semi-condensed" font-size="64" transform="matrix(1 0 0 1 2216.32 1034)">Schweizer Fleischkonsum, </text></g><g><text fill="#595959" font-family="Aptos Narrow,Aptos Narrow_MSFontService,sans-serif" font-weight="400" font-stretch="semi-condensed" font-size="64" transform="matrix(1 0 0 1 2383.84 1113)">kg pro Person</text></g><g><path d="M2156 1974 2244 1974" stroke="#156082" stroke-width="10.3125" stroke-linecap="round" stroke-linejoin="round" stroke-miterlimit="10" fill="none" fill-rule="evenodd"/></g><g><text fill="#595959" font-family="Aptos Narrow,Aptos Narrow_MSFontService,sans-serif" font-weight="400" font-stretch="semi-condensed" font-size="41" transform="matrix(1 0 0 1 2253.49 1986)">Geflügel</text></g><g><path d="M2569 1974 2657 1974" stroke="#E97132" stroke-width="10.3125" stroke-linecap="round" stroke-linejoin="round" stroke-miterlimit="10" fill="none" fill-rule="evenodd"/></g><g><text fill="#595959" font-family="Aptos Narrow,Aptos Narrow_MSFontService,sans-serif" font-weight="400" font-stretch="semi-condensed" font-size="41" transform="matrix(1 0 0 1 2665.92 1986)">Rind</text></g><g><path d="M2156 2051 2244 2051" stroke="#196B24" stroke-width="10.3125" stroke-linecap="round" stroke-linejoin="round" stroke-miterlimit="10" fill="none" fill-rule="evenodd"/></g><g><text fill="#595959" font-family="Aptos Narrow,Aptos Narrow_MSFontService,sans-serif" font-weight="400" font-stretch="semi-condensed" font-size="41" transform="matrix(1 0 0 1 2253.49 2063)">Schaf, Ziehe</text></g><g><path d="M2569 2051 2657 2051" stroke="#0F9ED5" stroke-width="10.3125" stroke-linecap="round" stroke-linejoin="round" stroke-miterlimit="10" fill="none" fill-rule="evenodd"/></g><g><text fill="#595959" font-family="Aptos Narrow,Aptos Narrow_MSFontService,sans-serif" font-weight="400" font-stretch="semi-condensed" font-size="41" transform="matrix(1 0 0 1 2665.92 2063)">Schwein</text></g><g><path d="M2156 2129 2244 2129" stroke="#A02B93" stroke-width="10.3125" stroke-linecap="round" stroke-linejoin="round" stroke-miterlimit="10" fill="none" fill-rule="evenodd"/></g><g><text fill="#595959" font-family="Aptos Narrow,Aptos Narrow_MSFontService,sans-serif" font-weight="400" font-stretch="semi-condensed" font-size="41" transform="matrix(1 0 0 1 2253.49 2140)">Andere</text></g><g><path d="M2569 2129 2657 2129" stroke="#4EA72E" stroke-width="10.3125" stroke-linecap="round" stroke-linejoin="round" stroke-miterlimit="10" fill="none" fill-rule="evenodd"/></g><g><text fill="#595959" font-family="Aptos Narrow,Aptos Narrow_MSFontService,sans-serif" font-weight="400" font-stretch="semi-condensed" font-size="41" transform="matrix(1 0 0 1 2665.92 2140)">Fisch und Seafood</text></g><rect x="1864.5" y="940.5" width="1380" height="1248" stroke="#D9D9D9" stroke-width="3.4375" stroke-linejoin="round" stroke-miterlimit="10" fill="none"/></g></svg>